<?xml version="1.0" encoding="UTF-8" standalone="no"?>
<!-- Generator: Adobe Illustrator 19.1.0, SVG Export Plug-In . SVG Version: 6.00 Build 0)  -->

<svg
   x="0px"
   y="0px"
   viewBox="0 0 595.3 595.3"
   style="enable-background:new 0 0 595.3 595.3;"
   xml:space="preserve"
   id="svg72"
   sodipodi:docname="root-me.svg"
   inkscape:version="1.3.2 (091e20ef0f, 2023-11-25)"
   width="595"
   height="595"
   version="1.1"
   xmlns:inkscape="http://www.inkscape.org/namespaces/inkscape"
   xmlns:sodipodi="http://sodipodi.sourceforge.net/DTD/sodipodi-0.dtd"
   xmlns="http://www.w3.org/2000/svg"
   xmlns:svg="http://www.w3.org/2000/svg"><sodipodi:namedview
   id="namedview1"
   pagecolor="#ffffff"
   bordercolor="#000000"
   borderopacity="0.25"
   inkscape:showpageshadow="2"
   inkscape:pageopacity="0.0"
   inkscape:pagecheckerboard="0"
   inkscape:deskcolor="#d1d1d1"
   inkscape:zoom="1.2806723"
   inkscape:cx="297.10958"
   inkscape:cy="297.5"
   inkscape:window-width="1920"
   inkscape:window-height="1017"
   inkscape:window-x="0"
   inkscape:window-y="0"
   inkscape:window-maximized="1"
   inkscape:current-layer="svg72" /><metadata
   id="metadata78" /><defs
   id="defs76">
	
	
</defs>
<style
   type="text/css"
   id="style2">
	.st0{fill:#9D9D9C;}
	.st1{fill:#575756;}
</style>
<g
   id="Calque_2">
</g>
<g
   id="g13"
   transform="matrix(1.8928864,0,0,1.8928864,-264.72593,-165.92773)">
		<path
   inkscape:connector-curvature="0"
   id="path5"
   d="m 299.2,319.9 c 0,0 0,0 0,0 -0.1,-0.1 -0.2,-0.2 -0.2,-0.3 -0.1,-0.1 -0.1,-0.1 -0.2,-0.2 0,0 0,0 0,0 -0.1,0 -0.1,-0.1 -0.2,-0.1 -0.1,-0.1 -0.2,-0.1 -0.3,-0.2 -0.1,0 -0.2,-0.1 -0.3,-0.1 -0.1,0 -0.2,-0.1 -0.2,-0.1 -0.1,0 -0.2,0 -0.3,-0.1 -0.1,0 -0.2,0 -0.3,0 -0.1,0 -0.2,0 -0.3,0 -0.1,0 -0.2,0 -0.3,0 -0.1,0 -0.2,0 -0.3,0 -0.1,0 -0.2,0 -0.3,0.1 -0.1,0 -0.2,0.1 -0.2,0.1 -0.1,0 -0.2,0.1 -0.3,0.1 -0.1,0 -0.2,0.1 -0.3,0.2 -0.1,0 -0.1,0.1 -0.2,0.1 0,0 0,0 0,0 -0.1,0.1 -0.1,0.1 -0.2,0.2 -0.1,0.1 -0.2,0.2 -0.2,0.2 0,0 0,0 0,0 l -8.1,10.1 c -1,1.3 -0.8,3.1 0.5,4.1 0.5,0.4 1.2,0.6 1.8,0.6 0.9,0 1.7,-0.4 2.3,-1.1 l 0.1,-0.1 c 3,-3.7 8.6,-3.7 11.5,0 l 0.1,0.1 c 0.6,0.7 1.4,1.1 2.3,1.1 0.6,0 1.3,-0.2 1.8,-0.6 1.3,-1 1.5,-2.9 0.5,-4.1 z" />
		<path
   inkscape:connector-curvature="0"
   id="path7"
   d="m 285.7,149.1 c -4.1,0 -7.5,3.2 -7.7,7.3 l -15.3,5.6 c -0.8,0.3 -1.4,1 -1.4,1.9 v 9.7 H 249 c -0.9,-3.3 -3.8,-5.7 -7.4,-5.7 -4.2,0 -7.7,3.4 -7.7,7.7 0,4.2 3.4,7.7 7.7,7.7 3.6,0 6.5,-2.4 7.4,-5.7 h 14.3 c 1.1,0 2,-0.9 2,-2 v -10.3 l 13.5,-5 c 1.3,2.5 3.9,4.2 6.8,4.2 4.2,0 7.7,-3.4 7.7,-7.7 0.1,-4.2 -3.4,-7.7 -7.6,-7.7 z" />
		<path
   style="fill:#9d9d9c"
   inkscape:connector-curvature="0"
   id="path9"
   d="m 269.5,292.3 c -2.5,-0.9 -4.9,-1.8 -7.2,-2.8 -1.7,-0.8 -3.4,-1.6 -5,-2.4 3.8,3.8 13,10.6 22.9,10.8 0.6,-0.7 1.1,-1.4 1.5,-2.3 -1.5,-0.3 -3,-0.6 -4.5,-1 -2.7,-0.7 -5.2,-1.4 -7.7,-2.3 z"
   class="st0" />
		<path
   inkscape:connector-curvature="0"
   id="path11"
   d="m 395,222.5 c 0,-4.7 -0.3,-9.4 -1,-13.9 0,-0.3 -0.1,-0.6 -0.1,-0.9 -6.1,-39.7 -36.2,-72.3 -75.8,-81 -1,-4.5 -5,-7.9 -9.8,-7.9 -5.6,0 -10.1,4.5 -10.1,10.1 0,4.8 3.4,8.8 7.9,9.8 v 36.9 c 0,0.6 0.3,1.2 0.8,1.6 0.3,0.2 0.7,0.3 1.1,0.3 0.2,0 0.5,0 0.7,-0.1 l 14.8,-5.6 c 1,1.5 2.5,2.5 4.3,3 v 17.4 c -7.5,9.2 -16.8,17.5 -26.7,24.9 l -11.3,-26.2 c 2.1,-1.4 3.5,-3.7 3.5,-6.4 0,-4.2 -3.4,-7.7 -7.7,-7.7 -4.2,0 -7.7,3.4 -7.7,7.7 0,4.2 3.4,7.7 7.7,7.7 0.1,0 0.3,0 0.4,0 l 11.8,27.3 c -6.9,5 -14,9.5 -21,13.6 L 243.2,223 c -0.4,-0.1 -0.8,-0.1 -1.2,0.1 l -10,3.9 c -1.4,-1.9 -3.6,-3.1 -6.2,-3.1 -4.2,0 -7.7,3.4 -7.7,7.7 0,4.2 3.4,7.7 7.7,7.7 4.2,0 7.7,-3.4 7.7,-7.7 0,-0.3 -0.1,-0.6 -0.1,-0.9 l 9.4,-3.7 29.3,8.8 c -25,14 -47.4,22.1 -51.1,23.4 l -1.8,0.6 c -1.6,-1.2 -3.6,-1.9 -5.8,-1.9 -0.1,0 -0.2,0 -0.3,0 -4.7,-11.1 -7.1,-23.2 -7.1,-35.3 0,-6 0.6,-11.9 1.7,-17.6 h 43.9 c 0.9,3.3 3.8,5.7 7.4,5.7 4.2,0 7.7,-3.4 7.7,-7.7 0,-4.2 -3.4,-7.7 -7.7,-7.7 -3.6,0 -6.5,2.4 -7.4,5.7 h -43 c 8.1,-32.9 34.1,-59.2 67.7,-67 1.8,2.9 5,4.9 8.6,4.9 5.6,0 10.1,-4.5 10.1,-10.1 0,-5.6 -4.5,-10.1 -10.1,-10.1 -4.9,0 -8.9,3.5 -9.9,8 -44.1,10 -76.4,49.7 -76.4,95.7 0,13.1 2.6,26.2 7.7,38.2 -1.9,1.8 -3,4.4 -3,7.2 0,4.5 2.9,8.2 6.9,9.6 v 39.4 c 0,0.7 0.2,1.4 0.6,2 l 2.2,1.5 29.9,21.1 v 25.2 c 0,2.1 1.7,3.8 3.8,3.8 h 100 c 2.1,0 3.8,-1.7 3.8,-3.8 v -25.2 l 30,-21.1 2.2,-1.6 c 0.4,-0.6 0.6,-1.3 0.6,-2 V 277 c 3.7,-1.5 6.3,-5.1 6.3,-9.3 0,-2.6 -1,-5 -2.6,-6.8 5.3,-11.9 8,-25.1 8,-38.4 z M 281.4,125.6 c 0.9,-1 2.2,-1.6 3.6,-1.6 2.7,0 4.9,2.2 4.9,4.9 0,2.7 -2.2,4.9 -4.9,4.9 -1,0 -1.9,-0.3 -2.7,-0.8 -1.3,-0.9 -2.2,-2.4 -2.2,-4 0,-1.4 0.5,-2.6 1.3,-3.4 z m 22,3.2 c 0,-2.7 2.2,-4.9 4.9,-4.9 1.4,0 2.6,0.6 3.5,1.5 0.8,0.9 1.3,2 1.3,3.3 0,1.6 -0.8,3.1 -2.1,4 -0.8,0.6 -1.7,0.9 -2.8,0.9 -2.6,0.1 -4.8,-2.1 -4.8,-4.8 z m 18.8,38.5 c 0,0.3 0.1,0.5 0.1,0.7 l -12.2,4.6 v -34 c 3,-0.5 5.5,-2.3 6.9,-4.8 10.7,2.4 20.7,6.7 29.6,12.6 -0.1,14.8 -5.8,28.4 -14.8,40.7 v -12.4 c 3.3,-0.9 5.7,-3.8 5.7,-7.4 0,-4.2 -3.4,-7.7 -7.7,-7.7 -4.2,0.1 -7.6,3.5 -7.6,7.7 z M 213.5,272.7 c -1.2,0 -2.3,-0.5 -3.2,-1.2 -1,-0.9 -1.7,-2.2 -1.7,-3.6 0,-0.6 0.1,-1.2 0.3,-1.7 0.7,-1.8 2.5,-3.1 4.5,-3.1 0.9,0 1.7,0.3 2.4,0.7 1.4,0.8 2.4,2.4 2.4,4.2 0,0.9 -0.3,1.7 -0.7,2.4 -0.7,1.4 -2.2,2.3 -4,2.3 z m 170,-1.9 c -0.9,1.1 -2.3,1.9 -3.8,1.9 -1.4,0 -2.6,-0.6 -3.5,-1.5 -0.8,-0.9 -1.3,-2 -1.3,-3.3 0,-2.1 1.3,-3.9 3.2,-4.5 0.5,-0.2 1.1,-0.3 1.7,-0.3 2.3,0 4.3,1.7 4.8,3.9 0.1,0.3 0.1,0.6 0.1,1 -0.2,1 -0.6,2 -1.2,2.8 z m -3,-13 c -0.3,0 -0.6,0 -0.9,0 -5.6,0 -10.1,4.5 -10.1,10.1 0,4.3 2.7,8 6.6,9.4 v 36.8 l -31.5,22.2 c -1,0.7 -1.6,1.9 -1.6,3.1 v 21.2 c 0,1.2 -1,2.2 -2.2,2.2 h -11.7 c -1.2,0 -2.2,-1 -2.2,-2.2 V 353 c 0,-2 -1.4,-3.8 -3.4,-4 -2.3,-0.2 -4.2,1.6 -4.2,3.8 v 7.9 c 0,1.2 -1,2.2 -2.2,2.2 h -14.3 c -1.2,0 -2.2,-1 -2.2,-2.2 V 349 c 0,-2 -1.4,-3.8 -3.4,-4 -2.3,-0.2 -4.2,1.6 -4.2,3.8 v 12 c 0,1.2 -1,2.2 -2.2,2.2 h -14.3 c -1.2,0 -2.2,-1 -2.2,-2.2 V 353 c 0,-2 -1.4,-3.8 -3.4,-4 -2.3,-0.2 -4.2,1.6 -4.2,3.8 v 7.9 c 0,1.2 -1,2.2 -2.2,2.2 h -11.7 c -1.2,0 -2.2,-1 -2.2,-2.2 v -21.2 c 0,-1.2 -0.6,-2.4 -1.6,-3.1 L 217.6,314.2 V 277 c 3.5,-1.6 5.9,-5.1 5.9,-9.2 0,-0.6 -0.1,-1.2 -0.2,-1.8 4,-1.4 34.5,-12.3 64.5,-31 40.6,-25.3 63.1,-54 65.7,-83.5 17.5,14.1 29.6,34.5 33.1,57.4 -0.5,50.1 -87.8,81 -88.7,81.3 -0.2,0.1 -0.7,0.2 -1.1,0.4 -1.1,-0.2 -2.2,-0.4 -3.4,-0.6 -0.8,-0.2 -1.7,-0.3 -2.5,-0.5 -1.3,-0.2 -2.6,-0.5 -3.9,-0.8 -0.2,-0.1 -0.5,-0.1 -0.7,-0.1 -0.5,-0.1 -1,-0.2 -1.5,-0.3 -0.6,-0.1 -1.2,-0.3 -1.8,-0.4 -1.4,-0.3 -2.8,-0.6 -4.1,-1 -2.5,-0.6 -4.9,-1.3 -7.3,-1.9 -2.3,-0.7 -4.7,-1.3 -6.9,-2 -0.1,0 -0.1,0 -0.2,0 -1.7,-0.5 -3.3,-1 -4.9,-1.6 -0.5,-0.2 -1.1,-0.4 -1.6,-0.5 -0.8,-0.3 -1.5,-0.5 -2.2,-0.7 -1.3,-0.4 -2.5,-0.8 -3.6,-1.3 0,0 -0.1,0 -0.1,0 -1.8,-0.6 -3.4,-1.2 -4.8,-1.8 -1.5,-0.6 -2.8,-1.1 -3.8,-1.5 -1,-0.5 -1.9,-0.8 -2.4,-1.1 -0.6,-0.3 -0.9,-0.4 -0.9,-0.4 0,0 0.2,0.3 0.6,0.7 0.4,0.5 1,1.2 1.9,2 0.8,0.8 1.9,1.8 3.2,2.8 1.3,1 2.8,2.1 4.4,3.2 0,0 0,0 0.1,0 -0.6,2 -1,4.2 -1,6.4 0,11.5 9.4,20.9 20.9,20.9 8.9,0 16.5,-5.6 19.5,-13.5 1,0.1 2.1,0.2 3.1,0.3 1.8,0.1 3.5,0.1 5.1,0.1 0.1,0 0.2,0.1 0.3,0.1 l 16.9,17.2 c 4.3,4.3 11,5 16,1.7 l 26.4,-14.8 c 2.3,-1.5 3.8,-4.1 3.8,-6.9 v -30.4 c 10.2,-8.1 19.4,-17.7 25.4,-28.6 -1.1,7.9 -3.2,15.4 -6.3,22.5 z m -98.8,37.8 c -0.4,0.8 -1,1.6 -1.5,2.3 v 0 c -2.4,2.8 -6,4.6 -10,4.6 -4,0 -7.6,-1.8 -10,-4.6 -2,-2.3 -3.1,-5.3 -3.1,-8.5 0,-0.8 0.1,-1.5 0.2,-2.3 0,0 0,0 0,0 1.6,0.8 3.3,1.6 5,2.4 2.3,1 4.7,2 7.2,2.8 2.5,0.9 5.1,1.6 7.7,2.3 1.5,0.4 3,0.7 4.5,1 z" />
	</g>
<path
   style="fill:#f9f9f9;stroke-width:0.78084"
   d="m 199.76129,533.74354 c -1.36194,-0.596 -2.8553,-1.7919 -3.31857,-2.65753 -0.55126,-1.03003 -0.84583,-10.15841 -0.85248,-26.4169 l -0.0101,-24.84299 -30.51872,-21.4731 c -19.06398,-13.4135 -30.78322,-22.1516 -31.22344,-23.28082 -0.3876,-0.99424 -0.70473,-18.65969 -0.70473,-39.25653 v -37.44881 l -1.8009,-0.6847 c -3.28616,-1.24939 -6.98791,-5.01848 -8.84439,-9.00523 -2.97081,-6.37978 -2.29328,-13.43628 1.82229,-18.97919 l 1.89309,-2.54964 -1.93665,-4.86834 c -6.79079,-17.07066 -10.88146,-35.86857 -12.26076,-56.342 -2.08433,-30.9385 4.27773,-62.64668 18.3429,-91.42004 9.9966,-20.45023 21.47938,-36.25027 38.02761,-52.32511 19.47295,-18.9159 39.42962,-31.586891 64.3139,-40.834499 7.94367,-2.952063 11.72718,-4.130722 20.49705,-6.38535 2.36847,-0.608907 3.31857,-1.25801 3.31857,-2.267246 0,-1.845146 3.72185,-7.324463 6.39628,-9.416618 5.24373,-4.102059 13.16366,-5.13449 19.01124,-2.478279 1.73447,0.787868 4.60147,3.077381 6.37112,5.087805 5.61244,6.376076 6.30333,14.715301 1.80658,21.805953 -4.00692,6.318257 -12.03763,9.933872 -18.72629,8.431026 -4.0826,-0.917297 -9.86001,-4.353023 -11.48162,-6.827927 -1.62724,-2.483481 -2.84723,-2.302905 -17.82285,2.638044 -45.01577,14.852181 -83.33105,49.846571 -102.60502,93.711961 -3.49093,7.94497 -8.2114,21.55029 -9.07133,26.14534 l -0.54798,2.92815 h 40.98627 40.98626 l 0.97179,-2.34611 c 2.37684,-5.7382 10.13028,-9.54041 15.91842,-7.80624 4.46393,1.33742 6.5335,2.9113 8.70855,6.62274 8.46467,14.44386 -11.75856,28.85572 -22.52939,16.05531 -1.09513,-1.30149 -2.2148,-3.07101 -2.48815,-3.93224 -0.48933,-1.54175 -1.14509,-1.5659 -42.51481,-1.5659 h -42.01782 l -0.90043,6.05151 c -4.47012,30.042 -1.40505,61.35339 8.59108,87.76278 l 2.55516,6.75063 3.56663,0.47686 c 1.96164,0.26227 4.62075,1.12973 5.90914,1.92769 2.34128,1.45007 2.34685,1.4493 10.54134,-1.45843 19.69412,-6.98825 47.61261,-19.34682 72.63053,-32.15105 16.59849,-8.49515 20.10277,-10.49198 19.45158,-11.08396 -0.18339,-0.16671 -12.71098,-4.03191 -27.83909,-8.58935 l -27.50568,-8.28624 -8.75515,3.37818 -8.75516,3.37819 -0.90847,4.54963 c -0.7632,3.82217 -1.47055,5.0807 -4.42383,7.87106 -4.50141,4.25307 -9.13713,5.2025 -14.4977,2.96924 -5.10468,-2.12665 -8.15877,-6.24778 -8.60339,-11.60926 -0.44139,-5.32266 0.66941,-8.15136 4.59287,-11.69597 3.55292,-3.20986 5.67861,-3.86347 10.92525,-3.35933 2.84709,0.27356 4.71678,1.04204 7.00057,2.87735 l 3.11601,2.50409 10.00269,-3.89801 10.00268,-3.89802 32.28731,9.71785 32.28731,9.71784 7.47319,-4.45659 c 10.99331,-6.55579 32.93392,-21.33827 32.60214,-21.96569 -0.15765,-0.29811 -5.17339,-11.91857 -11.1461,-25.82325 -5.97272,-13.90466 -11.21086,-25.39495 -11.64032,-25.53394 -0.42946,-0.13901 -2.25822,-0.63071 -4.0639,-1.09267 -14.35577,-3.67273 -13.74177,-24.23124 0.8158,-27.31534 3.40892,-0.72219 8.19281,0.46368 11.23688,2.78551 6.53567,4.985 7.17864,14.05313 1.45047,20.45665 l -2.57974,2.8839 10.62536,24.77113 c 5.84396,13.62412 10.87406,24.78037 11.17802,24.79167 0.94838,0.0352 19.38593,-14.98865 27.16717,-22.13725 4.07988,-3.74819 11.01607,-10.74952 15.41373,-15.55853 l 7.99576,-8.74366 0.008,-17.37368 c 0.007,-14.91136 -0.15783,-17.37369 -1.16116,-17.37369 -0.64295,0 -2.48768,-1.18031 -4.09941,-2.62291 l -2.9304,-2.6229 -14.70003,5.50966 c -11.40448,4.27448 -14.99308,5.32485 -16.00721,4.68528 -1.18651,-0.74827 -1.32592,-4.13661 -1.5101,-36.69922 l -0.2029,-35.874826 -2.81477,-1.017834 c -3.82549,-1.383311 -8.82233,-6.040361 -10.54902,-9.831661 -3.53087,-7.752767 -0.57564,-17.964227 6.59694,-22.794936 9.37675,-6.315206 21.23599,-3.20537 26.64913,6.988173 2.07956,3.916034 2.78939,4.59662 5.5104,5.283384 32.84089,8.288779 63.04803,25.22054 86.33055,48.39015 15.20363,15.12989 26.10789,30.01192 35.33665,48.22708 14.48087,28.58146 20.78923,56.9003 19.84144,89.0702 -0.62885,21.34427 -4.51662,41.17816 -11.54919,58.91949 l -3.09022,7.7958 2.35115,4.70506 c 2.54832,5.09964 2.94198,8.93954 1.43286,13.97653 -1.02508,3.42141 -5.61832,9.05556 -8.74809,10.73056 l -2.04622,1.0951 v 38.34589 c 0,31.64557 -0.19134,38.61501 -1.095,39.8861 -0.60225,0.84711 -14.64688,11.02742 -31.21028,22.62289 l -30.11529,21.08268 -0.0233,25.13854 -0.0233,25.13854 -1.88438,2.19086 -1.88438,2.19085 -95.91582,0.17113 c -80.37745,0.14341 -96.31697,-0.004 -98.39206,-0.9125 z m 88.75905,-13.70417 c 1.43975,-1.43974 1.56168,-2.6028 1.56168,-14.89602 V 491.809 l 2.28246,-2.28245 c 1.25535,-1.25535 2.99571,-2.28246 3.86745,-2.28246 2.44643,0 5.30193,1.5584 6.23876,3.40483 0.47868,0.94343 0.94088,7.31266 1.06184,14.63229 0.15835,9.5825 0.49357,13.29762 1.28585,14.25033 0.93158,1.12024 3.14564,1.28867 16.93899,1.28867 19.49391,0 18.2984,0.82992 18.2984,-12.70267 0,-8.76058 0.0978,-9.32967 1.91661,-11.14844 1.17265,-1.17265 2.81488,-1.91661 4.23076,-1.91661 5.85061,0 7.12691,2.47895 7.12691,13.8426 0,12.43755 -0.67056,11.92512 15.60531,11.92512 10.93544,0 13.38274,-0.20852 14.40125,-1.22704 1.05574,-1.05573 1.22704,-4.21184 1.22704,-22.60761 0,-14.19165 0.29576,-22.02972 0.87964,-23.31119 0.54606,-1.19846 12.38491,-10.0218 31.21851,-23.26673 l 30.33886,-21.33612 0.0151,-35.31295 0.0151,-35.31295 -2.14731,-1.12469 c -2.80237,-1.4678 -6.70212,-5.64792 -8.38956,-8.99275 -1.68277,-3.33558 -1.78907,-10.46509 -0.2115,-14.1855 2.75002,-6.48542 8.40224,-10.6542 15.6772,-11.56268 l 3.87212,-0.48354 2.68723,-7.02756 c 3.15643,-8.25457 7.66072,-25.33976 8.44019,-32.01444 l 0.54712,-4.68504 -4.57666,7.18471 c -8.97608,14.09117 -23.11602,29.96604 -37.37193,41.9573 l -6.24672,5.25439 -0.39042,31.03722 -0.39042,31.03722 -2.34252,3.77183 c -2.23772,3.60309 -3.6001,4.48033 -30.45275,19.60872 -29.42727,16.57888 -33.07075,18.14809 -39.66288,17.08245 -7.39887,-1.19605 -9.65364,-2.90329 -28.27019,-21.40529 l -17.95932,-17.84882 -8.19882,-0.50241 -8.19882,-0.50241 -2.2415,4.32203 c -4.75009,9.15902 -13.31665,16.23493 -23.34151,19.27989 -7.03932,2.13812 -18.27335,1.76757 -24.95667,-0.82321 -16.52718,-6.40674 -27.09856,-24.15074 -24.69964,-41.45821 0.38692,-2.7915 0.85861,-5.60253 1.0482,-6.24672 0.2165,-0.73565 -1.02412,-2.10152 -3.33576,-3.67253 -4.39063,-2.9839 -12.86856,-10.43444 -12.40303,-10.89996 0.18078,-0.18078 3.7985,1.0501 8.0394,2.73528 20.72612,8.23578 53.78886,17.82244 79.22741,22.97228 l 16.07706,3.25467 8.90982,-3.40371 c 19.68208,-7.51891 46.8909,-20.70214 65.91113,-31.93528 58.1944,-34.36901 90.31063,-72.05335 94.95283,-111.41514 0.75649,-6.41441 0.66195,-8.21189 -0.84664,-16.09776 -3.6831,-19.2528 -13.35921,-43.18197 -24.2708,-60.0221 -8.86585,-13.68289 -22.00476,-28.7199 -33.26275,-38.06804 -4.23989,-3.5206 -4.94862,-3.36098 -4.94862,1.11456 0,3.71606 -3.21805,17.84188 -5.89387,25.87151 -8.57206,25.72314 -23.84819,48.74012 -49.10351,73.98566 -15.40377,15.39779 -26.84359,25.06085 -44.95013,37.96872 -35.36924,25.21417 -84.3002,50.8996 -131.96194,69.27106 -5.79774,2.23477 -11.20802,4.32833 -12.02284,4.65236 -1.16753,0.4643 -1.52198,1.50305 -1.6725,4.90145 -0.10839,2.44728 -0.87845,5.65983 -1.78052,7.42803 -1.5899,3.11647 -7.25775,8.8655 -8.74031,8.8655 -0.51954,0 -0.71754,12.10471 -0.58338,35.66611 l 0.20309,35.6661 29.67192,20.9531 c 16.31955,11.52419 30.28682,21.69103 31.03838,22.59297 1.22896,1.47485 1.36647,3.81388 1.36647,23.24315 0,18.28888 0.18649,21.86952 1.21554,23.33869 1.17654,1.67975 1.64936,1.73542 14.74035,1.73542 9.86774,0 13.7436,-0.26392 14.33395,-0.97605 0.44504,-0.53683 0.92728,-5.48737 1.07167,-11.00121 0.2586,-9.87602 0.2951,-10.05316 2.45336,-11.9078 2.79954,-2.40572 6.09301,-2.40573 8.89258,-4e-5 2.16359,1.8592 2.19405,2.00977 2.44809,12.10219 0.2368,9.4074 0.39024,10.31273 1.93063,11.39166 1.34375,0.9412 4.5617,1.17209 16.33561,1.17209 13.62109,0 14.7731,-0.11089 16.22389,-1.56168 z m -31.4131,-115.54848 c 3.72656,-1.61495 11.8921,-9.10663 11.8921,-10.91071 0,-0.33996 -1.32473,-0.82995 -2.94384,-1.08886 -8.64639,-1.38261 -29.77093,-8.60458 -39.31449,-13.44067 -2.12838,-1.07852 -4.25478,-1.72301 -4.72533,-1.43219 -1.0912,0.6744 -0.37384,10.00834 1.01602,13.2199 5.87084,13.56582 20.63019,19.47922 34.07554,13.65253 z M 143.26068,349.59818 c 2.49257,-1.26126 5.48932,-5.72331 5.48932,-8.1734 0,-3.02031 -2.34922,-7.18867 -4.75156,-8.43096 -1.20914,-0.62527 -3.65655,-1.13686 -5.43867,-1.13686 -2.64383,0 -3.72886,0.48864 -5.89507,2.65485 -2.16621,2.16621 -2.65486,3.25124 -2.65486,5.89508 0,4.26242 1.66549,7.31968 4.83972,8.88403 3.09573,1.52566 5.80748,1.62471 8.41112,0.30726 z m 314.77522,-0.21024 c 4.69278,-2.42672 6.60513,-8.23616 4.22578,-12.83732 -1.7318,-3.34893 -4.1542,-4.69366 -8.45511,-4.69366 -3.29016,0 -4.16989,0.36134 -6.46339,2.65485 -2.29351,2.29351 -2.65486,3.17323 -2.65486,6.4634 0,4.43991 1.48838,6.98007 4.98043,8.4999 3.22608,1.40407 5.52985,1.38006 8.36715,-0.0872 z M 368.11856,181.8102 c 13.27114,-19.87265 21.55843,-42.6811 23.129,-63.65605 l 0.53693,-7.17064 -4.20714,-2.69128 c -11.60097,-7.42105 -28.9223,-15.004833 -43.835,-19.192244 l -8.40176,-2.35917 -3.16989,3.438932 c -1.78557,1.937107 -4.6775,4.014691 -6.62207,4.757328 l -3.45217,1.318398 v 32.351396 32.35139 l 1.75689,-0.55412 c 0.96629,-0.30476 6.14911,-2.21092 11.51738,-4.23591 l 9.7605,-3.68179 0.4382,-3.03949 c 2.06385,-14.31538 20.27053,-17.47113 26.50427,-4.59394 3.20771,6.62623 0.31975,15.06078 -6.18403,18.06102 l -3.14925,1.45277 -0.0201,11.90781 c -0.0111,6.54929 0.24338,11.90502 0.56548,11.90163 0.3221,-0.003 2.49685,-2.86812 4.8328,-6.36604 z M 280.62919,85.451779 c 2.92293,-2.459486 4.13677,-6.369264 3.12033,-10.05054 -1.79657,-6.506629 -10.51919,-9.050542 -15.56691,-4.540019 -2.87013,2.564677 -3.85125,7.397917 -2.27448,11.204582 2.21084,5.337426 10.21418,7.178268 14.72106,3.385977 z m 43.74218,-0.15857 c 1.11084,-0.821916 2.522,-2.915471 3.13592,-4.652344 2.22368,-6.291132 -2.27208,-12.387957 -9.02676,-12.241448 -4.33023,0.09392 -7.30695,2.168852 -8.82193,6.149335 -0.96828,2.54406 -0.96835,3.360039 -5.4e-4,6.137395 2.19606,6.302063 9.38162,8.552022 14.71331,4.607062 z"
   id="path1"
   transform="scale(1.0005042)" /><path
   style="fill:#f9f9f9;stroke-width:0.78084"
   d="m 279.54068,466.0092 c -4.48669,-2.54425 -3.76126,-4.70822 5.4967,-16.39663 4.5263,-5.71457 9.04487,-10.70414 10.04126,-11.08793 3.46114,-1.33316 5.39968,0.14649 13.74354,10.49018 8.84214,10.96141 9.9276,13.46571 7.0736,16.31972 -2.29056,2.29055 -4.29126,2.00101 -7.74714,-1.12117 -7.2025,-6.50703 -13.94368,-6.63563 -21.47021,-0.40958 -4.07149,3.36801 -4.72918,3.57122 -7.13775,2.20541 z"
   id="path2"
   transform="scale(1.0005042)" /><path
   style="fill:#f9f9f9;stroke-width:0.78084"
   d="m 186.62073,179.07376 c -3.44297,-1.81917 -5.06552,-3.43014 -6.72022,-6.67225 -1.96315,-3.84643 -1.86718,-8.10586 0.2783,-12.35279 5.11885,-10.13265 19.62858,-10.25094 24.40124,-0.19893 l 1.56168,3.28916 11.90781,0.0283 11.90781,0.0283 v -9.42141 c 0,-5.18178 0.34127,-10.05909 0.75839,-10.83848 0.46882,-0.87599 5.01551,-2.98423 11.90781,-5.52147 6.13218,-2.25743 12.99415,-4.7843 15.24883,-5.61527 3.11369,-1.14756 4.0994,-1.89425 4.0994,-3.10532 0,-4.54133 5.99182,-10.50846 11.93707,-11.88788 3.01597,-0.69976 7.81759,0.74152 10.7829,3.23666 2.59941,2.18726 5.34682,7.288 5.36877,9.96747 0.0288,3.51111 -1.87755,7.93908 -4.58238,10.64391 -5.76103,5.76103 -13.91884,5.66044 -19.64719,-0.24224 -1.59257,-1.64103 -3.20023,-2.98461 -3.57258,-2.98573 -0.37235,-0.001 -6.20448,2.0193 -12.9603,4.48983 l -12.2833,4.49187 -0.0149,10.58038 c -0.0101,7.16998 -0.31696,10.88241 -0.95194,11.51739 -0.66044,0.66044 -5.15002,0.93701 -15.21051,0.93701 h -14.2735 l -1.49446,2.92815 c -0.82195,1.61048 -2.14676,3.50069 -2.94402,4.20046 -4.32883,3.7995 -11.0096,4.87797 -15.50468,2.50289 z"
   id="path3"
   transform="scale(1.0005042)" /></svg>
